<svg xmlns="http://www.w3.org/2000/svg" style="display: none;"><symbol id="cancel" viewBox="0 0 512.001 512.001"><title>cancel</title><path d="M284.286,256.002L506.143,34.144c7.811-7.811,7.811-20.475,0-28.285c-7.811-7.81-20.475-7.811-28.285,0L256,227.717 L34.143,5.859c-7.811-7.811-20.475-7.811-28.285,0c-7.81,7.811-7.811,20.475,0,28.285l221.857,221.857L5.858,477.859 c-7.811,7.811-7.811,20.475,0,28.285c3.905,3.905,9.024,5.857,14.143,5.857c5.119,0,10.237-1.952,14.143-5.857L256,284.287 l221.857,221.857c3.905,3.905,9.024,5.857,14.143,5.857s10.237-1.952,14.143-5.857c7.811-7.811,7.811-20.475,0-28.285 L284.286,256.002z"/></symbol><symbol id="upload" viewBox="0 0 477.827 477.827"><title>upload</title><g> <g> <path d="M441.537,160.632c1.489-7.981,2.243-16.082,2.253-24.201C443.699,61.026,382.498-0.028,307.093,0.062 c-57.402,0.069-108.63,36.034-128.194,89.999c-35.029-13.944-74.73,3.148-88.675,38.177c-1.207,3.032-2.195,6.146-2.956,9.319 c-55.932,8.365-94.492,60.488-86.127,116.42c7.502,50.163,50.596,87.275,101.316,87.254h85.333 c9.426,0,17.067-7.641,17.067-17.067c0-9.426-7.641-17.067-17.067-17.067h-85.333c-37.703,0-68.267-30.564-68.267-68.267 s30.564-68.267,68.267-68.267c9.426,0,17.067-7.641,17.067-17.067c0.031-18.851,15.338-34.108,34.189-34.077 c8.915,0.015,17.471,3.517,23.837,9.757c6.713,6.616,17.519,6.537,24.135-0.176c2.484-2.521,4.123-5.751,4.69-9.245 c9.264-55.733,61.954-93.403,117.687-84.139c55.733,9.264,93.403,61.954,84.139,117.687c-0.552,3.323-1.269,6.617-2.146,9.869 c-1.962,7.124,0.883,14.701,7.049,18.773c31.416,20.845,39.985,63.212,19.139,94.628c-12.617,19.015-33.9,30.468-56.72,30.522 h-51.2c-9.426,0-17.067,7.641-17.067,17.067c0,9.426,7.641,17.067,17.067,17.067h51.2 c56.554-0.053,102.357-45.943,102.303-102.497C477.798,208.632,464.526,180.066,441.537,160.632z"/> </g> </g><g> <g> <path d="M353.456,243.832l-85.333-85.333c-1.589-1.593-3.481-2.852-5.564-3.703c-4.175-1.726-8.864-1.726-13.039,0 c-2.083,0.852-3.974,2.111-5.564,3.703l-85.333,85.333c-6.548,6.78-6.36,17.584,0.42,24.132c6.614,6.387,17.099,6.387,23.712,0 l56.235-56.201v248.934c0,9.426,7.641,17.067,17.067,17.067c9.426,0,17.067-7.641,17.067-17.067V211.764l56.201,56.201 c6.78,6.548,17.584,6.36,24.132-0.42C359.844,260.931,359.844,250.445,353.456,243.832z"/> </g> </g></symbol><symbol id="trash" viewBox="0 0 477.867 477.867"><title>trash</title><g> <g> <path d="M443.733,68.267H324.267V51.2c0-28.277-22.923-51.2-51.2-51.2H204.8c-28.277,0-51.2,22.923-51.2,51.2v17.067H34.133 c-9.426,0-17.067,7.641-17.067,17.067S24.708,102.4,34.133,102.4h18.551l32.649,359.953c0.805,8.814,8.216,15.55,17.067,15.514 h273.067c8.851,0.037,16.261-6.699,17.067-15.514L425.182,102.4h18.552c9.426,0,17.067-7.641,17.067-17.067 S453.159,68.267,443.733,68.267z M187.733,51.2c0-9.426,7.641-17.067,17.067-17.067h68.267c9.426,0,17.067,7.641,17.067,17.067 v17.067h-102.4V51.2z M359.885,443.733H117.982L87.04,102.4h83.627h220.245L359.885,443.733z"/> </g> </g><g> <g> <path d="M187.738,391.392c-0.002-0.023-0.003-0.047-0.005-0.07l-17.067-238.933c-0.669-9.426-8.853-16.524-18.278-15.855 c-9.426,0.669-16.524,8.853-15.855,18.278L153.6,393.745c0.637,8.949,8.095,15.878,17.067,15.855h1.229 C181.299,408.947,188.392,400.795,187.738,391.392z"/> </g> </g><g> <g> <path d="M238.933,136.533c-9.426,0-17.067,7.641-17.067,17.067v238.933c0,9.426,7.641,17.067,17.067,17.067 S256,401.959,256,392.533V153.6C256,144.174,248.359,136.533,238.933,136.533z"/> </g> </g><g> <g> <path d="M325.478,136.533c-9.426-0.669-17.609,6.429-18.278,15.855l-17.067,238.933c-0.691,9.4,6.369,17.581,15.769,18.272 c0.029,0.002,0.057,0.004,0.086,0.006h1.212c8.972,0.023,16.43-6.906,17.067-15.855l17.067-238.933 C342.003,145.386,334.904,137.203,325.478,136.533z"/> </g> </g></symbol><symbol id="cancel-1" viewBox="0 0 511.995 511.995"><title>cancel-1</title><g> <g> <path d="M437.126,74.939c-99.826-99.826-262.307-99.826-362.133,0C26.637,123.314,0,187.617,0,256.005 s26.637,132.691,74.993,181.047c49.923,49.923,115.495,74.874,181.066,74.874s131.144-24.951,181.066-74.874 C536.951,337.226,536.951,174.784,437.126,74.939z M409.08,409.006c-84.375,84.375-221.667,84.375-306.042,0 c-40.858-40.858-63.37-95.204-63.37-153.001s22.512-112.143,63.37-153.021c84.375-84.375,221.667-84.355,306.042,0 C493.435,187.359,493.435,324.651,409.08,409.006z"/> </g> </g><g> <g> <path d="M341.525,310.827l-56.151-56.071l56.151-56.071c7.735-7.735,7.735-20.29,0.02-28.046 c-7.755-7.775-20.31-7.755-28.065-0.02l-56.19,56.111l-56.19-56.111c-7.755-7.735-20.31-7.755-28.065,0.02 c-7.735,7.755-7.735,20.31,0.02,28.046l56.151,56.071l-56.151,56.071c-7.755,7.735-7.755,20.29-0.02,28.046 c3.868,3.887,8.965,5.811,14.043,5.811s10.155-1.944,14.023-5.792l56.19-56.111l56.19,56.111 c3.868,3.868,8.945,5.792,14.023,5.792c5.078,0,10.175-1.944,14.043-5.811C349.28,331.117,349.28,318.562,341.525,310.827z"/> </g> </g></symbol><symbol id="arrow-down-angle" viewBox="0 0 30.727 30.727"><title>arrow-down-angle</title><path d="M29.994,10.183L15.363,24.812L0.733,10.184c-0.977-0.978-0.977-2.561,0-3.536c0.977-0.977,2.559-0.976,3.536,0 l11.095,11.093L26.461,6.647c0.977-0.976,2.559-0.976,3.535,0C30.971,7.624,30.971,9.206,29.994,10.183z"/></symbol><symbol id="check" viewBox="0 -46 417.81333 417"><title>check</title><path d="m159.988281 318.582031c-3.988281 4.011719-9.429687 6.25-15.082031 6.25s-11.09375-2.238281-15.082031-6.25l-120.449219-120.46875c-12.5-12.5-12.5-32.769531 0-45.246093l15.082031-15.085938c12.503907-12.5 32.75-12.5 45.25 0l75.199219 75.203125 203.199219-203.203125c12.503906-12.5 32.769531-12.5 45.25 0l15.082031 15.085938c12.5 12.5 12.5 32.765624 0 45.246093zm0 0"/></symbol><symbol id="warning" viewBox="0 0 511.999 511.999"><title>warning</title><path d="M506.175,365.576c-4.095-10.258-15.729-15.255-25.987-11.16c-10.258,4.095-15.255,15.729-11.16,25.987 c5.206,13.043,3.499,27.935-4.567,39.839c-8.07,11.91-20.991,18.741-35.449,18.741H83.068c-15.771,0-29.776-8.229-37.465-22.015 c-7.701-13.809-7.339-30.082,0.968-43.533L219.543,93.382c7.876-12.752,21.519-20.365,36.497-20.365 c14.978,0,28.62,7.613,36.497,20.365l127.927,207.124c5.804,9.397,18.128,12.312,27.523,6.505 c9.396-5.803,12.31-18.126,6.505-27.523L326.564,72.364c-15.216-24.636-41.58-39.344-70.525-39.344s-55.309,14.709-70.525,39.344 L12.542,352.418c-16.036,25.966-16.734,57.38-1.869,84.033c14.853,26.63,41.916,42.528,72.395,42.528h345.944 c27.938,0,52.927-13.233,68.56-36.303C513.088,419.778,516.303,390.955,506.175,365.576z"/><path d="M256.049,399.987c11.045,0,19.998-8.953,19.998-19.998c0-11.045-8.953-19.998-19.998-19.998h-0.01 c-11.045,0-19.993,8.953-19.993,19.998C236.046,391.034,245.004,399.987,256.049,399.987z"/><path d="M276.038,309.995V163.008c0-11.045-8.953-19.998-19.998-19.998c-11.045,0-19.998,8.953-19.998,19.998v146.987 c0,11.045,8.953,19.998,19.998,19.998C267.085,329.993,276.038,321.04,276.038,309.995z"/></symbol><symbol id="reload" viewBox="0 0 460.801 460.801"><title>reload</title><path d="M231.298,17.068c-57.746-0.156-113.278,22.209-154.797,62.343V17.067C76.501,7.641,68.86,0,59.434,0 S42.368,7.641,42.368,17.067v102.4c-0.002,7.349,4.701,13.874,11.674,16.196l102.4,34.133c8.954,2.979,18.628-1.866,21.606-10.82 c2.979-8.954-1.866-18.628-10.82-21.606l-75.605-25.156c69.841-76.055,188.114-81.093,264.169-11.252 s81.093,188.114,11.252,264.169s-188.114,81.093-264.169,11.252c-46.628-42.818-68.422-106.323-57.912-168.75 c1.653-9.28-4.529-18.142-13.808-19.796s-18.142,4.529-19.796,13.808c-0.018,0.101-0.035,0.203-0.051,0.304 c-2.043,12.222-3.071,24.592-3.072,36.983C8.375,361.408,107.626,460.659,230.101,460.8 c122.533,0.331,222.134-98.734,222.465-221.267C452.896,117,353.832,17.399,231.298,17.068z"/></symbol><symbol id="more" viewBox="0 0 512 512"><title>more</title><path d="M256,128c35.346,0,64-28.654,64-64c0-35.346-28.654-64-64-64c-35.346,0-64,28.654-64,64C192,99.346,220.654,128,256,128z M256,32c17.673,0,32,14.327,32,32s-14.327,32-32,32c-17.673,0-32-14.327-32-32S238.327,32,256,32z"/><path d="M256,192c-35.346,0-64,28.654-64,64c0,35.346,28.654,64,64,64c35.346,0,64-28.654,64-64C320,220.654,291.346,192,256,192 z M256,288c-17.673,0-32-14.327-32-32s14.327-32,32-32c17.673,0,32,14.327,32,32S273.673,288,256,288z"/><path d="M256,384c-35.346,0-64,28.654-64,64c0,35.346,28.654,64,64,64c35.346,0,64-28.654,64-64C320,412.654,291.346,384,256,384 z M256,480c-17.673,0-32-14.327-32-32c0-17.673,14.327-32,32-32c17.673,0,32,14.327,32,32C288,465.673,273.673,480,256,480z"/></symbol></svg>